<svg width="260" height="68" viewBox="0 0 1928 498" fill="none" xmlns="http://www.w3.org/2000/svg">
<path d="M291.896 98L183.5 396.744L145.948 497.862L109.568 396.744L0 98H64.2L146.376 335.54L228.124 98H291.896Z" fill="white"/>
<path d="M359.816 146.792V221.692H521.396L656.396 245.446L521.396 269.2H359.816V348.38L460.396 341L359.816 397.172H299.896V98H359.816L460.396 146.792H359.816Z" fill="white"/>
<path d="M582.317 146.792V221.692H682.896L740.896 245.446L682.896 269.2H582.317V348.38L682.896 341L582.317 397.172H522.396V98H582.317L682.896 146.792H582.317Z" fill="white"/>
<path d="M821.689 400.768C786.843 400.768 758.58 392.637 736.898 376.376C732.833 348.306 731.865 324.398 733.995 304.652L748.896 329.044L787 374L767.082 350.5C777.041 353.241 802.931 361.857 825 361.857C842.229 361.857 856.147 359.743 865.246 352C871.053 345 871.053 348 879 329.044C879 317.235 878.216 307.653 871.053 300.296C863.89 292.747 852.275 286.552 836.208 281.712L807.751 272.71C758.773 257.223 734.285 229.541 734.285 189.662C734.285 163.528 743.383 142.717 761.58 127.23C779.778 111.743 804.363 104 835.337 104C863.019 104 887.992 109.808 910.254 121.423C913.739 144.46 914.707 165.464 913.158 184.435L893.122 149.009C870.472 137.2 845.826 143.5 825.5 143.5C792.651 154.5 792.674 155.189 785.5 179C784 193.5 791 201.078 792.651 202.729C800.394 210.472 812.784 217.054 829.819 222.475L858.276 231.477C906.092 246.576 930 273.775 930 313.073C930 339.982 920.224 361.373 900.672 377.247C881.12 392.927 854.792 400.768 821.689 400.768Z" fill="white"/>
<path d="M1148.14 98V206.5L1068.53 146.364V396.744H1008.61V146.364L932 206.5L929 98H1148.14Z" fill="white"/>
<path d="M1296.72 339.672H1177.74L1158.05 396.596H1095.14L1202.56 97.4238L1237.23 0L1272.33 97.4238L1379.76 396.596H1316.41L1296.72 339.672ZM1280.46 291.736L1237.23 166.76L1194 291.736H1280.46Z" fill="white"/>
<path d="M1552.84 398.744L1486.92 282.328H1458.68V398.744L1428.72 498L1398.76 398.744V100H1510.89C1534 100 1553.69 104.137 1569.96 112.412C1586.22 120.401 1598.35 131.387 1606.34 145.368C1614.61 159.064 1618.75 174.472 1618.75 191.592C1618.75 211.28 1613.04 229.113 1601.63 245.092C1590.21 260.785 1573.24 271.628 1550.7 277.62L1622.17 398.744H1552.84ZM1458.68 237.388H1508.75C1525.02 237.388 1537.14 233.536 1545.13 225.832C1553.12 217.843 1557.12 206.857 1557.12 192.876C1557.12 179.18 1553.12 168.623 1545.13 161.204C1537.14 153.5 1525.02 149.648 1508.75 149.648H1458.68V237.388Z" fill="white"/>
<path d="M1844.76 339.672H1725.78L1706.09 396.596H1643.17L1750.6 97.4238L1785.27 0L1820.36 97.4238L1927.79 396.596H1864.45L1844.76 339.672ZM1828.5 291.736L1785.27 166.76L1742.04 291.736H1828.5Z" fill="white"/>
</svg>
